<svg width="343" height="28" fill="none" xmlns="http://www.w3.org/2000/svg"><g filter="url(#a)"><path d="M30.691 8.763H9.645l4.624-4.624c.638-.638.638-1.594 0-2.232-.638-.638-1.594-.638-2.232 0L4.703 9.24c-.638.638-.638 1.594 0 2.232l7.334 7.334c.638.638 1.594.638 2.232 0 .638-.637.638-1.594 0-2.232l-4.624-4.624h21.046c.797 0 1.595-.637 1.595-1.594 0-.957-.798-1.594-1.595-1.594ZM311.737 11.237h21.046l-4.623 4.624c-.638.638-.638 1.595 0 2.232.637.638 1.594.638 2.232 0l7.334-7.334c.638-.638.638-1.594 0-2.232l-7.334-7.334c-.638-.638-1.595-.638-2.232 0-.638.637-.638 1.594 0 2.232l4.623 4.624h-21.046c-.797 0-1.594.637-1.594 1.594 0 .957.797 1.594 1.594 1.594Z" fill="#458FF6"/><circle opacity=".3" cx="157" cy="10" r="5" fill="#5B9BF3"/><circle opacity=".3" cx="185" cy="10" r="5" fill="#5B9BF3"/><circle opacity=".3" cx="213" cy="10" r="5" fill="#5B9BF3"/><circle cx="129" cy="10" r="5" fill="#5B9BF3"/></g><defs><filter id="a" x=".224" y=".714" width="341.98" height="26.571" filterUnits="userSpaceOnUse" color-interpolation-filters="sRGB"><feFlood flood-opacity="0" result="BackgroundImageFix"/><feColorMatrix in="SourceAlpha" values="0 0 0 0 0 0 0 0 0 0 0 0 0 0 0 0 0 0 127 0" result="hardAlpha"/><feOffset dy="4"/><feGaussianBlur stdDeviation="2"/><feComposite in2="hardAlpha" operator="out"/><feColorMatrix values="0 0 0 0 0 0 0 0 0 0 0 0 0 0 0 0 0 0 0.25 0"/><feBlend in2="BackgroundImageFix" result="effect1_dropShadow_24736_2"/><feBlend in="SourceGraphic" in2="effect1_dropShadow_24736_2" result="shape"/></filter></defs></svg>